<svg version="1.1" id="Layer_1" xmlns="http://www.w3.org/2000/svg" xmlns:xlink="http://www.w3.org/1999/xlink" x="0px" y="0px"
	 width="100%" viewBox="0 0 965 523" enable-background="new 0 0 965 523" xml:space="preserve">
<path fill="#000000" opacity="1.000000" stroke="none" 
	d="
M707.000000,524.000000 
	C471.333344,524.000000 236.166672,524.000000 1.000000,524.000000 
	C1.000000,349.666656 1.000000,175.333328 1.000000,1.000000 
	C322.666656,1.000000 644.333313,1.000000 966.000000,1.000000 
	C966.000000,175.333328 966.000000,349.666656 966.000000,524.000000 
	C879.833313,524.000000 793.666687,524.000000 707.000000,524.000000 
M710.237000,251.982803 
	C710.160889,252.323486 710.084839,252.664185 709.907166,253.936890 
	C709.941956,273.622345 709.976685,293.307800 710.008789,313.522614 
	C710.219604,313.797882 710.430420,314.073120 711.166748,314.871033 
	C723.372070,314.871033 735.577332,314.871033 747.782654,314.871033 
	C747.783142,314.554474 747.783630,314.237946 747.784119,313.921387 
	C735.549500,313.921387 723.314819,313.921387 711.017029,313.427277 
	C711.017029,313.427277 710.879150,312.948486 710.971802,312.021698 
	C710.943787,292.363678 710.915833,272.705658 711.029663,252.580734 
	C711.029663,252.580734 711.095215,252.097214 711.589355,252.017181 
	C711.746765,251.961945 711.904236,251.906693 712.988586,251.925095 
	C724.417725,251.925095 735.846924,251.925095 747.276062,251.925095 
	C747.279175,251.638458 747.282288,251.351807 747.285461,251.065170 
	C735.535095,251.065170 723.784668,251.065170 711.500427,251.023499 
	C711.211487,251.222168 710.922546,251.420853 710.237000,251.982803 
M219.016052,189.983398 
	C219.016052,189.983398 218.925842,189.967575 219.145325,190.672028 
	C219.610855,190.796204 220.076401,190.920364 220.500351,190.987122 
	C220.500351,190.987122 220.429474,190.988861 220.977310,191.589691 
	C221.755249,191.750031 222.533173,191.910370 223.383423,192.047745 
	C223.383423,192.047745 223.427017,191.985672 224.074158,192.652939 
	C230.405533,192.325241 236.977829,194.728943 243.470200,190.758942 
	C252.676682,186.334778 257.342712,178.694153 259.010071,167.971878 
	C258.992889,154.025009 259.008301,140.077942 258.916626,126.131561 
	C258.905365,124.419586 258.321289,122.711388 257.091095,120.987930 
	C254.042908,120.999367 250.994736,121.010803 247.172302,121.419403 
	C247.159302,137.504730 247.146286,153.590057 247.000488,170.441177 
	C244.827164,178.153076 238.506363,182.565155 230.621735,181.873917 
	C222.534622,181.164932 218.003860,176.193069 216.955307,165.947403 
	C216.961441,152.330856 217.021255,138.713791 216.890717,125.098572 
	C216.877670,123.736259 215.708649,122.385025 214.166428,121.004044 
	C211.442749,121.003471 208.719070,121.002907 205.343674,121.543663 
	C205.228287,137.070221 205.099197,152.596741 205.042114,168.123505 
	C205.039551,168.823822 205.689056,169.526520 206.177322,170.942001 
	C208.156723,178.260986 210.673523,185.228409 218.146851,189.552277 
	C218.444183,189.725555 218.741501,189.898834 219.016052,189.983398 
M546.996155,163.963135 
	C546.988220,170.725815 546.900024,177.489960 547.021851,184.250305 
	C547.057922,186.251572 547.685974,188.242203 548.521179,190.785797 
	C551.667847,190.971527 554.814514,191.157272 558.627991,190.736359 
	C558.764343,189.590530 559.018372,188.444824 559.019653,187.298859 
	C559.042969,165.682724 559.040283,144.066589 559.020874,122.450462 
	C559.020203,121.676483 558.794250,120.902695 558.518677,119.139580 
	C554.770020,119.986870 551.359863,120.757637 547.979980,121.611908 
	C547.979980,121.611908 548.051819,121.664116 547.324524,122.208038 
	C547.247009,131.127289 547.169495,140.046539 546.950684,149.488113 
	C546.944519,149.668365 546.938416,149.848633 547.025146,150.030243 
	C547.025146,150.030243 547.063293,149.945618 546.117798,149.975449 
	C536.389587,149.969788 526.661377,149.964142 516.962097,150.038116 
	C516.962097,150.038116 517.041687,150.067139 516.965637,149.123459 
	C516.970825,141.727142 517.046326,134.329773 516.934631,126.935234 
	C516.904602,124.947632 516.304871,122.968636 515.065918,120.973724 
	C512.062256,120.975174 509.058655,120.976624 505.253418,121.347794 
	C505.159546,143.996994 505.056030,166.646164 505.017059,189.295456 
	C505.015869,189.994293 505.683990,190.694275 506.756866,191.680145 
	C509.822723,191.553711 512.888550,191.427261 516.656067,190.739395 
	C516.783020,181.639404 516.909973,172.539398 516.980713,163.491379 
	C516.980713,163.491379 516.987183,163.567657 517.504761,163.131470 
	C517.692322,162.743958 517.879944,162.356430 517.975403,161.963943 
	C517.975403,161.963943 517.952637,162.053421 518.896240,162.023743 
	C528.285339,162.034027 537.674438,162.044296 547.025269,161.969604 
	C547.025269,161.969604 546.932129,161.970108 546.955872,162.511734 
	C547.003357,162.686218 547.050842,162.860687 546.996155,163.963135 
M725.040955,120.958595 
	C725.040955,120.958595 725.023315,120.921051 724.288391,121.377174 
	C724.288391,124.806511 724.288391,128.235855 724.288391,131.577530 
	C730.803467,131.928848 737.062683,132.266373 743.128723,133.574341 
	C743.079163,151.854630 743.009155,170.134918 743.026794,188.415161 
	C743.027954,189.619980 743.698059,190.824142 744.953796,192.022598 
	C747.667297,191.995422 750.380859,191.968231 753.646606,191.327591 
	C753.750610,189.517761 753.939880,187.708206 753.945435,185.898071 
	C753.998657,168.507553 754.020935,151.116913 754.025818,133.606033 
	C754.025818,133.606033 753.971863,133.495346 754.514038,133.136444 
	C754.687866,132.761627 754.861633,132.386810 754.999207,131.991425 
	C754.999207,131.991425 755.004517,132.032700 755.939697,132.076233 
	C759.907593,132.083710 763.922241,131.710800 767.831848,132.191757 
	C773.117249,132.841919 774.111145,129.970139 773.730103,125.863014 
	C773.574951,124.190918 772.607422,122.594200 772.012634,121.029526 
	C772.012634,121.029526 772.078918,121.033737 771.637817,120.271164 
	C756.426880,120.182564 741.215881,120.093964 725.426819,119.976105 
	C725.284729,120.301361 725.142578,120.626617 725.040955,120.958595 
M820.781738,126.008087 
	C824.123840,124.662849 827.234497,121.912468 831.244202,124.361580 
	C831.412048,124.464081 832.556152,122.968063 833.554138,121.880272 
	C824.603455,119.818398 822.523193,120.526527 819.863098,126.041100 
	C819.863098,126.041100 820.039612,126.058228 820.781738,126.008087 
M125.163422,149.472717 
	C125.123596,154.232925 124.952888,158.996826 125.087448,163.752090 
	C125.186119,167.238800 125.685318,170.714188 125.899963,174.928787 
	C127.607697,178.625839 129.315430,182.322891 131.423584,186.789764 
	C138.846664,186.844833 146.270569,186.982224 153.692398,186.909317 
	C156.211700,186.884567 158.725784,186.329208 161.748535,185.545074 
	C163.171432,182.102859 164.594330,178.660645 166.776428,174.741302 
	C166.776428,166.216995 166.776428,157.692703 166.776428,149.130081 
	C152.796036,149.130081 139.374252,149.130081 125.163422,149.472717 
M710.066895,350.240173 
	C710.017883,374.721832 709.964966,399.203461 709.941772,423.685150 
	C709.941162,424.320557 710.266479,424.956329 710.868103,426.090759 
	C711.219666,425.987701 711.571228,425.884644 711.922791,425.781586 
	C711.654907,425.483337 711.387024,425.185089 711.026917,423.967865 
	C711.054993,399.345947 711.083008,374.724060 711.687256,349.851440 
	C711.618042,349.494904 711.548828,349.138397 711.479492,348.781799 
	C711.139709,348.998749 710.799927,349.215668 710.066895,350.240173 
M713.119385,121.143280 
	C710.194519,121.143280 707.269653,121.143280 704.347595,121.143280 
	C704.347595,145.170486 704.347595,168.462753 704.347595,191.847763 
	C707.465454,191.847763 710.262939,191.847763 713.927490,191.946655 
	C714.289490,191.009689 714.964905,190.073608 714.967529,189.135635 
	C715.028320,167.436920 715.028870,145.737991 714.975769,124.039230 
	C714.973328,123.055084 714.362732,122.072418 713.119385,121.143280 
M354.341644,191.751938 
	C364.447540,191.856110 374.553345,191.975006 384.659485,192.017929 
	C385.130371,192.019943 385.604126,191.343140 386.797821,190.937454 
	C396.516602,187.964630 401.650177,180.653702 402.626740,171.281311 
	C403.465881,163.227798 398.817566,157.118866 391.317047,153.625961 
	C388.606476,152.363693 388.137451,151.057129 389.998749,148.316299 
	C394.527252,141.647873 394.893921,134.193832 390.202789,129.085190 
	C387.089539,125.694878 382.501099,123.659180 377.944305,120.324326 
	C369.735474,120.324326 361.526672,120.324326 353.034241,120.324326 
	C353.034241,143.335373 353.025635,166.181488 353.075867,189.027496 
	C353.077362,189.712540 353.695129,190.396255 354.007233,190.994080 
	C354.007233,190.994080 353.920868,190.975082 354.341644,191.751938 
M671.973083,464.313995 
	C672.303589,464.556610 672.634033,464.799255 673.905945,465.014557 
	C705.234802,464.961639 736.563599,464.908722 768.685974,464.819031 
	C770.163330,464.747375 771.640686,464.675690 773.118042,464.604034 
	C773.072449,464.124023 773.026917,463.644012 772.981384,463.164032 
	C771.318481,463.460602 769.655518,463.757202 767.070862,463.875977 
	C735.431274,463.873596 703.791748,463.871246 671.973083,464.313995 
M349.108215,463.945129 
	C349.716309,464.297668 350.322784,464.954498 350.932709,464.957672 
	C362.479645,465.018280 374.027100,465.023163 385.574005,464.956635 
	C386.410645,464.951813 387.243622,464.310486 388.012207,464.011566 
	C388.012207,464.011566 387.965973,464.077850 388.734985,463.645782 
	C388.838226,462.492706 389.031586,461.339630 389.031830,460.186523 
	C389.048553,379.092163 389.054840,297.997803 389.008362,216.903458 
	C389.007629,215.596741 388.345459,214.290421 387.056244,212.948822 
	C374.470398,212.948822 361.884583,212.948822 348.976166,212.948822 
	C348.976166,248.305756 348.976166,282.930542 349.006378,317.511322 
	C349.006378,317.511322 349.036194,317.467041 348.435974,317.913605 
	C348.103302,318.283142 347.770630,318.652710 347.502808,318.998993 
	C347.502808,318.998993 347.563507,318.966370 346.539948,319.052368 
	C311.334045,319.019653 276.128143,318.986969 240.985764,319.015381 
	C240.985764,319.015381 241.050079,319.075684 240.958542,318.132233 
	C240.978180,284.719025 241.010025,251.305786 240.972488,217.892639 
	C240.970993,216.564148 240.309753,215.236404 239.977448,213.954269 
	C239.977448,213.954269 239.928421,213.967255 239.489731,213.233398 
	C227.135895,213.122238 214.782135,212.999161 202.428040,212.942871 
	C201.925400,212.940567 201.419876,213.567902 200.971786,214.850052 
	C200.982559,295.913025 200.985901,376.975983 201.047226,458.038910 
	C201.048752,460.052307 201.691940,462.065247 201.988281,464.011810 
	C201.988281,464.011810 201.921585,463.964325 202.378113,464.713989 
	C214.442917,464.799957 226.507675,464.897980 238.572617,464.928986 
	C239.071884,464.930267 239.572754,464.303528 239.999481,464.028748 
	C239.999481,464.028748 239.949860,464.109100 240.729279,463.682251 
	C240.825027,461.864441 241.003342,460.046692 241.004257,458.228851 
	C241.019989,426.957764 241.013824,395.686646 241.012482,364.415558 
	C241.012405,362.663940 241.012466,360.912323 241.012466,358.953674 
	C277.116486,358.953674 312.533295,358.953674 348.487610,359.241028 
	C348.664734,359.340607 348.841827,359.440155 348.995453,359.504333 
	C348.995453,359.504333 348.960083,359.480865 348.995697,360.511169 
	C349.001862,369.309723 348.993530,378.108337 349.016998,386.906860 
	C349.084747,412.302460 349.165344,437.698090 349.108215,463.945129 
M624.729431,216.077408 
	C624.729431,267.503113 624.729431,318.928833 624.729431,370.354523 
	C625.779175,369.322327 626.002075,368.255493 626.002441,367.188568 
	C626.019409,317.365906 626.025696,267.543213 625.971130,217.720581 
	C625.969666,216.363937 625.288635,215.008041 624.320862,213.099503 
	C611.848450,213.098740 599.376038,213.097977 586.036682,213.044891 
	C585.677063,214.166000 585.003174,215.287048 585.002991,216.408234 
	C584.992920,269.251099 585.041443,322.093994 584.941223,375.725861 
	C585.018677,377.462463 585.096069,379.199066 585.173523,380.935699 
	C585.463013,380.943390 585.752441,380.951080 586.041931,380.958771 
	C586.041931,378.973633 586.041931,376.988495 586.089539,374.066589 
	C586.150208,321.120087 586.210815,268.173553 587.133972,214.923462 
	C599.645325,215.003174 612.156616,215.082886 624.729431,216.077408 
M473.955475,215.110107 
	C473.955475,269.069214 473.955475,323.028351 473.955475,376.987457 
	C474.880371,374.825409 474.879791,372.665710 474.880432,370.505981 
	C474.895874,318.845795 474.915741,267.185608 474.889282,215.525421 
	C474.888855,214.697296 474.321808,213.869461 473.080566,212.991531 
	C460.487244,212.991531 447.893921,212.991531 435.349548,212.991531 
	C435.349548,267.361420 435.349548,321.076782 435.349548,374.792145 
	C436.120392,373.174286 436.120605,371.541412 436.120331,369.908569 
	C436.112091,319.762085 436.142639,269.615479 436.022308,219.469254 
	C436.012634,215.427765 437.076843,213.909821 441.329346,214.025940 
	C452.150452,214.321426 462.983551,214.177628 473.955475,215.110107 
M671.293945,214.253616 
	C671.188416,215.405441 670.990723,216.557236 670.990540,217.709076 
	C670.976501,297.999115 670.976990,378.289124 670.990417,458.579163 
	C670.990662,459.835724 671.167419,461.092255 671.261780,462.348816 
	C672.217224,460.401550 672.216675,458.457336 672.217285,456.513153 
	C672.241882,376.057220 672.266602,295.601318 673.165405,214.890259 
	C675.486816,214.757294 677.808044,214.511703 680.129578,214.508789 
	C703.117004,214.479980 726.104492,214.491364 750.034180,214.491364 
	C746.185181,213.853470 743.218262,212.951828 740.246399,212.935043 
	C719.249878,212.816498 698.252319,212.859131 677.255310,212.922531 
	C675.517456,212.927780 673.781128,213.466339 671.293945,214.253616 
M167.963196,94.304680 
	C167.631958,92.527870 167.300720,90.751053 166.577927,88.197853 
	C153.938812,88.108856 141.298584,88.087189 128.661362,87.882278 
	C125.601524,87.832657 124.073738,88.542465 124.075073,91.982216 
	C124.076439,95.520996 125.819099,96.000702 128.767044,95.975067 
	C140.748062,95.870857 152.730682,95.960129 164.712387,95.906769 
	C165.765594,95.902084 166.816513,95.379646 167.963196,94.304680 
M159.010132,460.010986 
	C159.010132,460.010986 158.993423,460.076141 159.744431,459.621429 
	C159.822952,458.463776 159.970062,457.306152 159.970200,456.148499 
	C159.980530,369.118439 159.983414,282.088379 159.940536,195.058334 
	C159.939880,193.721420 159.363190,192.384796 158.118469,190.918640 
	C149.737244,190.952728 141.356018,190.986816 132.193848,191.408020 
	C132.137482,191.902527 132.031815,192.397003 132.031723,192.891525 
	C132.016434,280.775177 132.004822,368.658813 132.041779,456.542450 
	C132.042282,457.724396 132.660706,458.906036 132.985291,460.023956 
	C132.985291,460.023956 132.928055,460.052795 133.385071,460.800110 
	C139.131821,460.887695 144.880402,461.097076 150.624542,461.010803 
	C153.444839,460.968445 156.256927,460.377991 159.010132,460.010986 
M124.142876,138.560410 
	C124.142876,140.614960 124.142876,142.669510 124.142876,144.803070 
	C138.977570,144.803070 153.174896,144.803070 168.210022,144.803070 
	C167.726929,142.223465 167.323120,140.067215 166.482544,137.177429 
	C153.428223,137.126740 140.373886,137.057358 127.319618,137.067657 
	C126.455063,137.068329 125.590981,137.675598 124.142876,138.560410 
M158.972198,81.256340 
	C154.917450,69.028008 150.862701,56.799667 146.807953,44.571331 
	C146.317108,44.570004 145.826279,44.568676 145.335449,44.567348 
	C141.357208,56.116596 137.341202,67.653145 133.447586,79.230850 
	C132.950333,80.709457 133.091141,82.402641 133.395920,84.741585 
	C142.171234,84.741585 150.946548,84.741585 160.246780,84.741585 
	C159.707382,83.562698 159.354462,82.791359 158.972198,81.256340 
M811.467407,160.435867 
	C815.696045,153.228104 819.924744,146.020325 824.440735,138.322693 
	C820.018066,137.753387 818.868042,139.937576 818.043396,142.952438 
	C817.612976,144.525940 816.426697,145.892700 815.581848,147.352875 
	C814.113953,146.118698 812.646057,144.884537 810.612244,143.174515 
	C816.949890,139.766663 818.321899,134.928497 818.220642,129.394806 
	C814.688110,134.243149 811.698730,139.363754 808.717896,144.489380 
	C806.513672,148.279694 805.150452,148.374451 802.875549,144.579727 
	C799.115845,138.308380 795.556030,131.917587 791.846802,125.615486 
	C788.816406,120.466751 783.958984,119.346184 778.013550,122.729836 
	C785.348572,135.508530 792.685242,148.290176 800.019470,161.996674 
	C800.006287,169.789536 799.918335,177.583435 800.027405,185.374588 
	C800.058350,187.587952 800.662720,189.793304 801.909729,192.008438 
	C804.634827,191.988220 807.359863,191.968002 810.651428,191.343369 
	C810.772583,181.169235 810.893799,170.995117 811.467407,160.435867 
M583.040649,181.623291 
	C593.317261,181.421616 603.593506,181.159729 613.871033,181.089844 
	C615.251770,181.080475 616.639038,182.039383 618.013123,182.489990 
	C618.013123,182.489990 617.961487,182.457916 618.018616,183.280121 
	C618.352295,183.706131 618.685974,184.132141 618.962646,184.546722 
	C618.962646,184.546722 618.912231,184.575607 619.131592,185.213028 
	C619.434570,185.531250 619.737610,185.849457 620.344666,186.788589 
	C623.530884,192.738541 627.689514,193.829132 633.364197,189.834671 
	C622.768188,166.836960 612.138611,143.766403 601.062012,119.725510 
	C599.659485,122.005379 598.961731,122.922394 598.487427,123.943260 
	C591.766174,138.410416 585.061890,152.885544 578.382874,167.372269 
	C575.322021,174.011292 572.392883,180.711777 569.270447,187.321335 
	C567.751526,190.536499 568.507874,191.869217 572.108337,192.032089 
	C578.406494,192.316986 582.333984,188.395508 583.040649,181.623291 
M669.623718,121.368126 
	C660.870422,121.368126 652.117126,121.368126 643.359253,121.368126 
	C643.359253,145.162689 643.359253,168.520172 643.359253,191.767639 
	C647.027039,191.767639 650.299255,191.767639 654.148804,191.767639 
	C654.148804,182.757660 654.148804,174.020142 654.148804,165.299240 
	C657.158630,164.803329 659.591919,164.402420 662.577209,164.378601 
	C668.034363,172.082962 673.526306,179.763031 678.936218,187.500427 
	C682.427124,192.493149 687.697937,193.662109 693.874390,190.340332 
	C692.961060,188.799271 692.171509,187.188400 691.130859,185.760559 
	C687.027161,180.129898 682.909180,174.507187 678.667358,168.980637 
	C676.116699,165.657486 675.543579,163.483719 679.991699,160.779968 
	C685.591980,157.375854 688.647888,151.671005 688.956299,144.978989 
	C689.471191,133.803543 682.560181,125.494469 669.623718,121.368126 
M131.002136,113.509491 
	C131.002136,120.257881 131.002136,127.006271 131.002136,133.650574 
	C141.368713,133.650574 151.078781,133.650574 160.742950,133.650574 
	C160.742950,122.377266 160.742950,111.466064 160.742950,100.328659 
	C150.793274,100.328659 141.090225,100.328659 131.002060,100.328659 
	C131.002060,104.594414 131.002060,108.554054 131.002136,113.509491 
M743.500000,347.879761 
	C733.890564,347.879761 724.281128,347.879761 714.671692,347.879761 
	C714.676941,348.293915 714.682190,348.708069 714.687439,349.122223 
	C733.169800,349.122223 751.652100,349.122223 770.134460,349.122223 
	C770.141907,348.707458 770.149292,348.292725 770.156738,347.877960 
	C761.604492,347.877960 753.052246,347.877960 743.500000,347.879761 
M724.541992,425.990509 
	C721.117432,425.990509 717.692871,425.990509 714.268250,425.990509 
	C714.273926,426.244446 714.279541,426.498383 714.285156,426.752319 
	C732.308960,426.752319 750.332764,426.752319 768.356567,426.752319 
	C768.356812,426.498444 768.357056,426.244598 768.357300,425.990723 
	C754.080994,425.990723 739.804626,425.990723 724.541992,425.990509 
M823.141357,134.776596 
	C823.994812,135.038422 825.471985,135.706848 825.606750,135.500168 
	C827.255432,132.970734 828.707397,130.313019 830.846313,126.577713 
	C825.904114,128.182770 823.478821,130.181564 823.141357,134.776596 
M624.004639,374.360565 
	C624.080322,375.216309 624.155945,376.072021 624.231567,376.927765 
	C624.543274,376.843964 624.854980,376.760132 625.166687,376.676331 
	C624.816162,375.735962 624.465637,374.795593 624.004639,374.360565 
z"/>
<path fill="#010101" opacity="1.000000" stroke="none" 
	d="
M347.563507,318.966370 
	C347.563507,318.966370 347.502808,318.998993 347.968536,319.103821 
	C348.634888,318.628143 348.835541,318.047577 349.036194,317.467041 
	C349.036194,317.467041 349.006378,317.511322 349.307434,317.192017 
	C349.752869,314.390747 350.020477,311.908936 350.022858,309.426849 
	C350.051392,279.459106 350.070190,249.491241 350.000092,219.523636 
	C349.992065,216.096146 350.303009,213.886826 354.738739,214.026108 
	C365.714935,214.370773 376.705261,214.266220 387.725983,214.787872 
	C387.779175,292.357483 387.793091,369.481415 387.819855,446.605347 
	C387.821899,452.429504 387.915131,458.253693 387.965973,464.077850 
	C387.965973,464.077850 388.012207,464.011566 387.576477,463.913025 
	C378.093567,463.836182 369.045654,463.931488 359.999542,463.841644 
	C356.611389,463.808044 353.227478,463.343597 349.903564,462.605713 
	C349.989075,429.487244 350.027588,396.838593 349.990326,364.190063 
	C349.988556,362.619934 349.318787,361.050568 348.960083,359.480865 
	C348.960083,359.480865 348.995453,359.504333 349.059998,359.181244 
	C348.850586,358.523865 348.576599,358.189575 347.815369,357.835083 
	C313.377808,357.810516 279.427490,357.821259 245.477280,357.777130 
	C242.261261,357.772949 239.695755,357.636078 239.722137,362.275116 
	C239.915115,396.219116 239.899597,430.164307 239.949860,464.109100 
	C239.949860,464.109100 239.999481,464.028748 239.571014,463.902466 
	C226.735550,463.838867 214.328568,463.901611 201.921585,463.964325 
	C201.921585,463.964325 201.988281,464.011810 202.074249,463.574707 
	C202.143814,381.437408 202.125275,299.737183 202.130203,218.036972 
	C202.130280,216.724915 202.417694,215.412903 203.000366,214.137970 
	C215.595932,214.105804 227.762177,214.036530 239.928421,213.967255 
	C239.928421,213.967255 239.977448,213.954269 239.886505,214.400085 
	C239.795761,247.769638 239.776062,280.693390 239.849701,313.616974 
	C239.853775,315.437408 240.632126,317.256165 241.050079,319.075684 
	C241.050079,319.075684 240.985764,319.015381 241.214752,319.329895 
	C242.094162,319.754608 242.744522,319.960876 243.395035,319.961273 
	C276.907227,319.982605 310.419495,319.997223 343.931610,319.948914 
	C345.142700,319.947174 346.352905,319.308319 347.563507,318.966370 
z"/>
<path fill="#3E3E3E" opacity="1.000000" stroke="none" 
	d="
M132.974792,191.020905 
	C141.356018,190.986816 149.737244,190.952728 158.550476,191.447662 
	C158.986130,281.343170 158.989777,370.709656 158.993423,460.076141 
	C158.993423,460.076141 159.010132,460.010986 158.570892,459.967773 
	C149.730453,459.967285 141.329254,460.010040 132.928055,460.052795 
	C132.928055,460.052795 132.985291,460.023956 133.046814,459.584778 
	C133.113037,386.742737 133.126999,314.339874 133.115540,241.937012 
	C133.112854,224.964981 133.024017,207.992935 132.974792,191.020905 
M150.083801,222.898132 
	C151.421371,221.671402 152.946457,220.592621 154.056259,219.186172 
	C156.160507,216.519409 156.842606,213.880737 154.376419,210.691299 
	C151.824509,207.391052 149.466873,204.174362 144.745819,205.337006 
	C139.486298,206.632217 135.984497,212.319290 137.235107,217.035370 
	C138.582718,222.117294 143.402252,224.571457 150.083801,222.898132 
M147.987259,347.076355 
	C147.572327,345.848450 147.157410,344.620544 146.561050,342.855682 
	C143.119324,347.925110 143.346634,354.365936 148.002213,358.391602 
	C148.002213,354.908264 148.002213,351.424896 147.987259,347.076355 
M147.996918,289.774017 
	C147.642639,288.019531 147.288345,286.265015 146.934067,284.510529 
	C146.516525,284.638428 146.098999,284.766327 145.681458,284.894226 
	C145.681458,289.688049 145.681458,294.481903 145.681458,299.275726 
	C146.257690,299.309601 146.833923,299.343506 147.410156,299.377380 
	C147.606247,296.474487 147.802322,293.571594 147.996918,289.774017 
z"/>
<path fill="#070707" opacity="1.000000" stroke="none" 
	d="
M378.573029,121.017097 
	C382.501099,123.659180 387.089539,125.694878 390.202789,129.085190 
	C394.893921,134.193832 394.527252,141.647873 389.998749,148.316299 
	C388.137451,151.057129 388.606476,152.363693 391.317047,153.625961 
	C398.817566,157.118866 403.465881,163.227798 402.626740,171.281311 
	C401.650177,180.653702 396.516602,187.964630 385.969421,190.877045 
	C374.734314,190.869461 364.327576,190.922272 353.920868,190.975082 
	C353.920868,190.975082 354.007233,190.994080 354.086212,190.567673 
	C354.137848,168.561722 354.184296,146.981583 354.011566,125.403198 
	C353.982269,121.742645 355.407471,120.912422 358.705780,121.000298 
	C365.323669,121.176613 371.950104,121.030273 378.573029,121.017097 
M375.438446,159.013947 
	C373.938934,159.013992 372.422302,159.160095 370.943054,158.987061 
	C366.258636,158.439148 364.673096,160.586929 364.997406,165.071701 
	C365.273102,168.884583 365.086212,172.731628 365.085876,176.563553 
	C365.085602,179.420364 366.455170,180.892059 369.349609,180.892090 
	C373.181458,180.892120 377.019775,181.050613 380.843567,180.878845 
	C386.382843,180.630035 391.643738,175.215332 391.840210,169.815491 
	C392.030945,164.573212 387.776031,159.948090 381.879456,159.162888 
	C380.074738,158.922546 378.220612,159.053360 375.438446,159.013947 
M380.997437,134.716476 
	C376.417114,129.854370 370.805298,132.710556 365.107788,132.012863 
	C365.107788,137.114349 364.909668,141.593140 365.231079,146.034332 
	C365.324921,147.331177 366.747437,149.423416 367.821198,149.604034 
	C372.568817,150.402725 377.058228,149.646652 380.631439,145.849487 
	C383.790710,142.492249 383.464355,139.006882 380.997437,134.716476 
z"/>
<path fill="#070707" opacity="1.000000" stroke="none" 
	d="
M670.197754,122.034126 
	C682.560181,125.494469 689.471191,133.803543 688.956299,144.978989 
	C688.647888,151.671005 685.591980,157.375854 679.991699,160.779968 
	C675.543579,163.483719 676.116699,165.657486 678.667358,168.980637 
	C682.909180,174.507187 687.027161,180.129898 691.130859,185.760559 
	C692.171509,187.188400 692.961060,188.799271 693.874390,190.340332 
	C687.697937,193.662109 682.427124,192.493149 678.936218,187.500427 
	C673.526306,179.763031 668.034363,172.082962 661.947754,164.037750 
	C653.436279,162.841141 653.025513,163.200089 653.015991,170.993881 
	C653.009644,176.146912 652.852783,181.306396 653.063171,186.450745 
	C653.209106,190.018158 651.727844,190.993393 648.355713,190.970337 
	C645.092773,190.948044 644.023193,189.795898 644.038635,186.585892 
	C644.135071,166.472870 644.148071,146.358795 644.029175,126.246025 
	C644.008118,122.683540 645.440247,121.587364 648.765930,121.690231 
	C655.906555,121.911079 663.053467,121.931595 670.197754,122.034126 
M656.111633,155.596542 
	C659.976929,155.432724 663.842224,155.268890 668.412292,154.903290 
	C669.973633,154.003128 671.640076,153.243988 673.075562,152.174896 
	C676.609985,149.542770 678.869995,146.085297 677.718018,141.552353 
	C676.557373,136.985260 673.589966,133.861465 668.499207,132.164246 
	C664.149536,132.119751 659.799927,132.075256 655.490479,131.979462 
	C655.490479,131.979462 655.555542,131.982925 654.592773,131.890289 
	C654.388245,132.444336 654.183716,132.998367 653.983337,133.490021 
	C653.983337,133.490021 654.029724,133.448120 653.421265,134.151749 
	C653.624268,140.618439 653.827332,147.085114 653.983215,153.509171 
	C653.983215,153.509171 653.978027,153.445786 653.969666,154.374908 
	C654.497437,154.590286 655.025146,154.805664 655.489624,155.018311 
	C655.489624,155.018311 655.446655,154.971893 656.111633,155.596542 
z"/>
<path fill="#070707" opacity="1.000000" stroke="none" 
	d="
M516.987183,163.567657 
	C516.987183,163.567657 516.980713,163.491379 516.625977,163.742065 
	C516.165710,173.095459 516.060059,182.198135 515.954407,191.300827 
	C512.888550,191.427261 509.822723,191.553711 506.531189,191.057510 
	C506.222046,167.282608 506.138519,144.130341 506.055023,120.978073 
	C509.058655,120.976624 512.062256,120.975174 515.462463,121.446701 
	C515.877686,129.630798 515.831909,137.343018 515.965576,145.052124 
	C515.994690,146.729507 516.666138,148.395752 517.041687,150.067139 
	C517.041687,150.067139 516.962097,150.038116 517.207214,150.348724 
	C526.844177,150.797913 536.235901,150.953293 545.628235,151.026169 
	C546.103760,151.029846 546.584839,150.322113 547.063293,149.945618 
	C547.063293,149.945618 547.025146,150.030243 547.300415,150.113312 
	C547.762451,149.824768 547.949219,149.453125 548.207092,148.612305 
	C548.202759,139.316788 548.127258,130.490448 548.051758,121.664116 
	C548.051819,121.664116 547.979980,121.611908 548.421326,121.582314 
	C557.938721,120.670052 557.937988,120.670052 557.940796,129.648636 
	C557.947144,150.213425 557.954285,170.778229 557.961182,191.343018 
	C554.814514,191.157272 551.667847,190.971527 548.392456,190.038712 
	C548.218628,180.502045 548.173462,171.712463 548.089111,162.595764 
	C547.677307,162.169144 547.304749,162.069626 546.932129,161.970108 
	C546.932129,161.970108 547.025269,161.969604 546.847046,161.616058 
	C537.567139,161.148132 528.465393,161.016708 519.363342,160.968414 
	C518.895081,160.965942 518.422974,161.675430 517.952637,162.053436 
	C517.952637,162.053421 517.975403,161.963943 517.563660,161.942993 
	C517.096985,162.470581 517.042114,163.019119 516.987183,163.567657 
z"/>
<path fill="#070707" opacity="1.000000" stroke="none" 
	d="
M258.959717,168.893570 
	C257.342712,178.694153 252.676682,186.334778 242.809265,190.818573 
	C235.907898,191.247345 229.667450,191.616516 223.427017,191.985672 
	C223.427017,191.985672 223.383423,192.047745 223.160309,191.650238 
	C222.101303,191.164764 221.265381,191.076813 220.429474,190.988861 
	C220.429474,190.988861 220.500351,190.987122 220.451233,190.623810 
	C219.910019,190.162842 219.417923,190.065216 218.925842,189.967575 
	C218.925842,189.967575 219.016052,189.983398 219.022797,189.734940 
	C218.691788,189.337204 218.354019,189.187943 218.016251,189.038666 
	C210.673523,185.228409 208.156723,178.260986 206.158997,170.101868 
	C206.092255,153.175262 206.043823,137.088791 205.995392,121.002335 
	C208.719070,121.002907 211.442749,121.003471 214.696960,121.425888 
	C215.425812,123.454323 215.788956,125.060165 215.796097,126.667595 
	C215.848282,138.422882 215.785767,150.178848 215.881805,161.933609 
	C215.895264,163.581161 216.575500,165.223297 216.947083,166.867935 
	C218.003860,176.193069 222.534622,181.164932 230.621735,181.873917 
	C238.506363,182.565155 244.827164,178.153076 247.321701,169.753189 
	C247.744125,153.050888 247.845337,137.036560 247.946548,121.022247 
	C250.994736,121.010803 254.042908,120.999367 257.524841,121.462860 
	C257.981537,135.877045 257.972717,149.816513 258.068237,163.755280 
	C258.079956,165.470001 258.648956,167.180893 258.959717,168.893570 
z"/>
<path fill="#070707" opacity="1.000000" stroke="none" 
	d="
M618.912231,184.575592 
	C618.912231,184.575607 618.962646,184.546722 619.015808,184.116943 
	C618.699829,183.277420 618.330627,182.867661 617.961487,182.457916 
	C617.961487,182.457916 618.013123,182.489990 618.005005,182.082535 
	C616.718384,181.114471 615.447083,180.087753 614.160278,180.068024 
	C605.036926,179.928192 595.909180,179.920334 586.786011,180.068237 
	C585.261597,180.092972 583.752686,181.079727 582.236633,181.621933 
	C582.333984,188.395508 578.406494,192.316986 572.108337,192.032089 
	C568.507874,191.869217 567.751526,190.536499 569.270447,187.321335 
	C572.392883,180.711777 575.322021,174.011292 578.382874,167.372269 
	C585.061890,152.885544 591.766174,138.410416 598.487427,123.943260 
	C598.961731,122.922394 599.659485,122.005379 601.062012,119.725510 
	C612.138611,143.766403 622.768188,166.836960 633.364197,189.834671 
	C627.689514,193.829132 623.530884,192.738541 620.116211,186.139191 
	C619.562622,185.185074 619.237427,184.880341 618.912231,184.575592 
M588.968933,171.035660 
	C588.968933,171.035660 588.932556,170.947693 589.339417,171.734955 
	C595.108826,171.891388 600.878601,172.157074 606.647522,172.139847 
	C608.455444,172.134445 610.261047,171.367401 612.027710,171.033920 
	C612.027710,171.033920 611.935181,171.050079 612.523987,170.974121 
	C612.363831,170.353027 612.203674,169.731949 611.701355,168.467712 
	C608.358887,160.787064 605.016418,153.106415 601.333069,144.642426 
	C599.762512,146.383972 599.187073,146.785110 598.937988,147.334274 
	C595.677673,154.523041 592.463501,161.732727 588.665222,169.225189 
	C588.797546,169.834976 588.929871,170.444763 588.968933,171.035660 
z"/>
<path fill="#3E3E3E" opacity="1.000000" stroke="none" 
	d="
M131.023163,186.019943 
	C129.315430,182.322891 127.607697,178.625839 125.980530,174.081085 
	C126.113655,165.544632 126.166214,157.855896 126.671448,150.117096 
	C138.440399,150.026627 149.758224,150.079712 161.072052,149.891495 
	C164.687103,149.831375 166.156891,151.006943 166.042328,154.761765 
	C165.834503,161.574554 166.004761,168.398911 166.017227,175.218430 
	C164.594330,178.660645 163.171432,182.102859 161.011520,185.747986 
	C150.524063,185.973907 140.773605,185.996918 131.023163,186.019943 
z"/>
<path fill="#070707" opacity="1.000000" stroke="none" 
	d="
M753.094360,191.941040 
	C750.380859,191.968231 747.667297,191.995422 744.546997,191.555939 
	C744.104126,173.870667 744.096252,156.651901 743.998291,139.433624 
	C743.985352,137.153198 743.513733,134.875381 743.061035,132.331223 
	C740.334290,131.716858 737.803894,131.093231 735.267273,131.066498 
	C724.939575,130.957642 724.938843,131.025055 725.023315,120.921051 
	C725.023315,120.921051 725.040955,120.958595 725.140137,121.153969 
	C725.239319,121.349342 725.695312,121.265305 726.182007,121.232391 
	C741.805481,121.144226 756.942200,121.088982 772.078918,121.033737 
	C772.078918,121.033737 772.012634,121.029526 771.982300,121.453224 
	C772.629761,130.816986 772.628174,130.723465 763.521851,130.878525 
	C760.677002,130.926987 757.843323,131.629547 755.004517,132.032700 
	C755.004517,132.032700 754.999207,131.991425 754.635864,132.026825 
	C754.172302,132.539932 754.072083,133.017639 753.971863,133.495346 
	C753.971863,133.495346 754.025818,133.606033 753.784973,134.029388 
	C753.381104,135.922028 753.078064,137.391144 753.076416,138.860596 
	C753.056519,156.554047 753.081238,174.247559 753.094360,191.941040 
z"/>
<path fill="#070707" opacity="1.000000" stroke="none" 
	d="
M800.021973,161.071808 
	C792.685242,148.290176 785.348572,135.508530 778.013550,122.729836 
	C783.958984,119.346184 788.816406,120.466751 791.846802,125.615486 
	C795.556030,131.917587 799.115845,138.308380 802.875549,144.579727 
	C805.150452,148.374451 806.513672,148.279694 808.717896,144.489380 
	C811.698730,139.363754 814.688110,134.243149 818.220642,129.394806 
	C818.321899,134.928497 816.949890,139.766663 810.612244,143.174515 
	C812.646057,144.884537 814.113953,146.118698 815.581787,147.352859 
	C816.426697,145.892700 817.612976,144.525940 818.043396,142.952438 
	C818.868042,139.937576 820.018066,137.753387 824.440735,138.322693 
	C819.924744,146.020325 815.696045,153.228104 811.012146,160.991699 
	C810.399536,171.680954 810.242249,181.814362 810.084961,191.947784 
	C807.359863,191.968002 804.634827,191.988220 801.491455,191.537521 
	C801.053955,184.954758 801.148499,178.839676 800.974060,172.732254 
	C800.862915,168.839554 800.353088,164.958221 800.021973,161.071808 
z"/>
<path fill="#3E3E3E" opacity="1.000000" stroke="none" 
	d="
M132.936340,83.996414 
	C133.091141,82.402641 132.950333,80.709457 133.447586,79.230850 
	C137.341202,67.653145 141.357208,56.116596 145.335449,44.567348 
	C145.826279,44.568676 146.317108,44.570004 146.807953,44.571331 
	C150.862701,56.799667 154.917450,69.028008 158.931885,82.054413 
	C157.398178,83.236099 155.909698,83.927094 154.410538,83.951057 
	C147.254059,84.065422 140.094681,83.998718 132.936340,83.996414 
z"/>
<path fill="#3E3E3E" opacity="1.000000" stroke="none" 
	d="
M166.919312,137.910965 
	C167.323120,140.067215 167.726929,142.223465 168.210022,144.803070 
	C153.174896,144.803070 138.977570,144.803070 124.142876,144.803070 
	C124.142876,142.669510 124.142876,140.614960 124.914154,138.370163 
	C139.430054,138.090271 153.174683,138.000610 166.919312,137.910965 
z"/>
<path fill="#9E9E9E" opacity="1.000000" stroke="none" 
	d="
M132.584320,191.214462 
	C133.024017,207.992935 133.112854,224.964981 133.115540,241.937012 
	C133.126999,314.339874 133.113037,386.742737 133.049530,459.616699 
	C132.660706,458.906036 132.042282,457.724396 132.041779,456.542450 
	C132.004822,368.658813 132.016434,280.775177 132.031723,192.891525 
	C132.031815,192.397003 132.137482,191.902527 132.584320,191.214462 
z"/>
<path fill="#9E9E9E" opacity="1.000000" stroke="none" 
	d="
M159.368927,459.848785 
	C158.989777,370.709656 158.986130,281.343170 159.018906,191.512360 
	C159.363190,192.384796 159.939880,193.721420 159.940536,195.058334 
	C159.983414,282.088379 159.980530,369.118439 159.970200,456.148499 
	C159.970062,457.306152 159.822952,458.463776 159.368927,459.848785 
z"/>
<path fill="#3E3E3E" opacity="1.000000" stroke="none" 
	d="
M166.969482,88.974243 
	C167.300720,90.751053 167.631958,92.527870 167.456329,94.681961 
	C154.993530,95.070190 143.037445,95.114708 131.081818,95.061325 
	C128.912567,95.051651 125.960365,95.759766 125.968216,92.091309 
	C125.976143,88.385986 128.973328,89.201553 131.109756,89.178589 
	C143.062363,89.050156 155.016113,89.030838 166.969482,88.974243 
z"/>
<path fill="#747474" opacity="1.000000" stroke="none" 
	d="
M388.350464,463.861816 
	C387.915131,458.253693 387.821899,452.429504 387.819855,446.605347 
	C387.793091,369.481415 387.779175,292.357483 387.776428,214.442734 
	C387.857849,213.429230 387.924927,213.206573 387.991974,212.983917 
	C388.345459,214.290421 389.007629,215.596741 389.008362,216.903458 
	C389.054840,297.997803 389.048553,379.092163 389.031830,460.186523 
	C389.031586,461.339630 388.838226,462.492706 388.350464,463.861816 
z"/>
<path fill="#747474" opacity="1.000000" stroke="none" 
	d="
M202.571014,214.100861 
	C202.417694,215.412903 202.130280,216.724915 202.130203,218.036972 
	C202.125275,299.737183 202.143814,381.437408 202.098038,463.608032 
	C201.691940,462.065247 201.048752,460.052307 201.047226,458.038910 
	C200.985901,376.975983 200.982559,295.913025 201.369415,214.327179 
	C202.035049,213.903152 202.303024,214.001999 202.571014,214.100861 
z"/>
<path fill="#9E9E9E" opacity="1.000000" stroke="none" 
	d="
M672.291321,215.145386 
	C672.266602,295.601318 672.241882,376.057220 672.217285,456.513153 
	C672.216675,458.457336 672.217224,460.401550 671.261780,462.348816 
	C671.167419,461.092255 670.990662,459.835724 670.990417,458.579163 
	C670.976990,378.289124 670.976501,297.999115 670.990540,217.709076 
	C670.990723,216.557236 671.188416,215.405441 671.689880,214.359772 
	C672.154358,214.692429 672.222839,214.918900 672.291321,215.145386 
z"/>
<path fill="#9E9E9E" opacity="1.000000" stroke="none" 
	d="
M240.339569,463.895691 
	C239.899597,430.164307 239.915115,396.219116 239.722137,362.275116 
	C239.695755,357.636078 242.261261,357.772949 245.477280,357.777130 
	C279.427490,357.821259 313.377808,357.810516 347.770508,358.123779 
	C348.125336,358.606293 348.037689,358.779999 347.950073,358.953674 
	C312.533295,358.953674 277.116486,358.953674 241.012466,358.953674 
	C241.012466,360.912323 241.012405,362.663940 241.012482,364.415558 
	C241.013824,395.686646 241.019989,426.957764 241.004257,458.228851 
	C241.003342,460.046692 240.825027,461.864441 240.339569,463.895691 
z"/>
<path fill="#505050" opacity="1.000000" stroke="none" 
	d="
M473.811829,214.209656 
	C462.983551,214.177628 452.150452,214.321426 441.329346,214.025940 
	C437.076843,213.909821 436.012634,215.427765 436.022308,219.469254 
	C436.142639,269.615479 436.112091,319.762085 436.120331,369.908569 
	C436.120605,371.541412 436.120392,373.174286 435.349548,374.792145 
	C435.349548,321.076782 435.349548,267.361420 435.349548,212.991531 
	C447.893921,212.991531 460.487244,212.991531 473.486115,213.306442 
	C473.865051,213.817444 473.838440,214.013550 473.811829,214.209656 
z"/>
<path fill="#747474" opacity="1.000000" stroke="none" 
	d="
M473.883667,214.659882 
	C473.838440,214.013550 473.865051,213.817444 473.955383,213.331421 
	C474.321808,213.869461 474.888855,214.697296 474.889282,215.525421 
	C474.915741,267.185608 474.895874,318.845795 474.880432,370.505981 
	C474.879791,372.665710 474.880371,374.825409 473.955475,376.987457 
	C473.955475,323.028351 473.955475,269.069214 473.883667,214.659882 
z"/>
<path fill="#747474" opacity="1.000000" stroke="none" 
	d="
M585.083252,374.936890 
	C585.041443,322.093994 584.992920,269.251099 585.002991,216.408234 
	C585.003174,215.287048 585.677063,214.166000 586.365417,213.335114 
	C586.553284,214.159256 586.412415,214.693146 586.271484,215.227036 
	C586.210815,268.173553 586.150208,321.120087 585.824707,374.537567 
	C585.559937,375.008545 585.083252,374.936890 585.083252,374.936890 
z"/>
<path fill="#9E9E9E" opacity="1.000000" stroke="none" 
	d="
M624.924438,213.651794 
	C625.288635,215.008041 625.969666,216.363937 625.971130,217.720581 
	C626.025696,267.543213 626.019409,317.365906 626.002441,367.188568 
	C626.002075,368.255493 625.779175,369.322327 624.729431,370.354523 
	C624.729431,318.928833 624.729431,267.503113 624.806519,215.249725 
	C624.897156,214.165283 624.910767,213.908539 624.924438,213.651794 
z"/>
<path fill="#3E3E3E" opacity="1.000000" stroke="none" 
	d="
M672.728394,215.017822 
	C672.222839,214.918900 672.154358,214.692429 672.064941,214.111526 
	C673.781128,213.466339 675.517456,212.927780 677.255310,212.922531 
	C698.252319,212.859131 719.249878,212.816498 740.246399,212.935043 
	C743.218262,212.951828 746.185181,213.853470 750.034180,214.491364 
	C726.104492,214.491364 703.117004,214.479980 680.129578,214.508789 
	C677.808044,214.511703 675.486816,214.757294 672.728394,215.017822 
z"/>
<path fill="#505050" opacity="1.000000" stroke="none" 
	d="
M669.910767,121.701126 
	C663.053467,121.931595 655.906555,121.911079 648.765930,121.690231 
	C645.440247,121.587364 644.008118,122.683540 644.029175,126.246025 
	C644.148071,146.358795 644.135071,166.472870 644.038635,186.585892 
	C644.023193,189.795898 645.092773,190.948044 648.355713,190.970337 
	C651.727844,190.993393 653.209106,190.018158 653.063171,186.450745 
	C652.852783,181.306396 653.009644,176.146912 653.015991,170.993881 
	C653.025513,163.200089 653.436279,162.841141 661.671753,163.849182 
	C659.591919,164.402420 657.158630,164.803329 654.148804,165.299240 
	C654.148804,174.020142 654.148804,182.757660 654.148804,191.767639 
	C650.299255,191.767639 647.027039,191.767639 643.359253,191.767639 
	C643.359253,168.520172 643.359253,145.162689 643.359253,121.368126 
	C652.117126,121.368126 660.870422,121.368126 669.910767,121.701126 
z"/>
<path fill="#505050" opacity="1.000000" stroke="none" 
	d="
M387.524109,212.966370 
	C387.924927,213.206573 387.857849,213.429230 387.740356,213.997040 
	C376.705261,214.266220 365.714935,214.370773 354.738739,214.026108 
	C350.303009,213.886826 349.992065,216.096146 350.000092,219.523636 
	C350.070190,249.491241 350.051392,279.459106 350.022858,309.426849 
	C350.020477,311.908936 349.752869,314.390747 349.292297,317.213989 
	C348.976166,282.930542 348.976166,248.305756 348.976166,212.948822 
	C361.884583,212.948822 374.470398,212.948822 387.524109,212.966370 
z"/>
<path fill="#747474" opacity="1.000000" stroke="none" 
	d="
M131.002106,113.011589 
	C131.002060,108.554054 131.002060,104.594414 131.002060,100.328659 
	C141.090225,100.328659 150.793274,100.328659 160.742950,100.328659 
	C160.742950,111.466064 160.742950,122.377266 160.742950,133.650574 
	C151.078781,133.650574 141.368713,133.650574 131.002136,133.650574 
	C131.002136,127.006271 131.002136,120.257881 131.002106,113.011589 
M139.798904,131.276108 
	C142.804779,133.963638 149.085861,133.790421 153.412445,131.463577 
	C157.984131,134.132843 159.966263,133.304382 160.033279,128.506287 
	C160.135483,121.188095 160.160019,113.864990 159.985565,106.549500 
	C159.942764,104.754242 159.081268,101.491089 158.459915,101.457954 
	C155.947891,101.323990 153.382614,102.188034 150.065735,102.738686 
	C147.045349,102.846207 144.024979,102.953728 141.014557,102.427017 
	C138.555374,102.010132 136.086929,101.308334 133.643875,101.387741 
	C133.072495,101.406319 132.163818,104.063820 132.133209,105.522362 
	C131.973862,113.117851 131.970230,120.719673 132.108963,128.315704 
	C132.135620,129.775650 133.097977,132.473633 133.530228,132.453796 
	C135.401367,132.367981 137.235962,131.485672 139.798904,131.276108 
z"/>
<path fill="#747474" opacity="1.000000" stroke="none" 
	d="
M347.051727,319.009369 
	C346.352905,319.308319 345.142700,319.947174 343.931610,319.948914 
	C310.419495,319.997223 276.907227,319.982605 243.395035,319.961273 
	C242.744522,319.960876 242.094162,319.754608 241.182983,319.299316 
	C276.128143,318.986969 311.334045,319.019653 347.051727,319.009369 
z"/>
<path fill="#9E9E9E" opacity="1.000000" stroke="none" 
	d="
M241.004303,318.603943 
	C240.632126,317.256165 239.853775,315.437408 239.849701,313.616974 
	C239.776062,280.693390 239.795761,247.769638 239.875732,214.377106 
	C240.309753,215.236404 240.970993,216.564148 240.972488,217.892639 
	C241.010025,251.305786 240.978180,284.719025 241.004303,318.603943 
z"/>
<path fill="#505050" opacity="1.000000" stroke="none" 
	d="
M348.977905,359.996033 
	C349.318787,361.050568 349.988556,362.619934 349.990326,364.190063 
	C350.027588,396.838593 349.989075,429.487244 349.753967,462.629333 
	C349.542419,463.122833 349.240875,463.093689 349.240906,463.093689 
	C349.165344,437.698090 349.084747,412.302460 349.016998,386.906860 
	C348.993530,378.108337 349.001862,369.309723 348.977905,359.996033 
z"/>
<path fill="#747474" opacity="1.000000" stroke="none" 
	d="
M166.773712,88.586044 
	C155.016113,89.030838 143.062363,89.050156 131.109756,89.178589 
	C128.973328,89.201553 125.976143,88.385986 125.968216,92.091309 
	C125.960365,95.759766 128.912567,95.051651 131.081818,95.061325 
	C143.037445,95.114708 154.993530,95.070190 167.408966,95.078468 
	C166.816513,95.379646 165.765594,95.902084 164.712387,95.906769 
	C152.730682,95.960129 140.748062,95.870857 128.767044,95.975067 
	C125.819099,96.000702 124.076439,95.520996 124.075073,91.982216 
	C124.073738,88.542465 125.601524,87.832657 128.661362,87.882278 
	C141.298584,88.087189 153.938812,88.108856 166.773712,88.586044 
z"/>
<path fill="#747474" opacity="1.000000" stroke="none" 
	d="
M767.892456,464.855804 
	C736.563599,464.908722 705.234802,464.961639 673.165527,464.781128 
	C672.334106,464.321472 672.243164,464.095184 672.152161,463.868866 
	C703.791748,463.871246 735.431274,463.873596 767.499268,464.164429 
	C767.927734,464.452911 767.892456,464.855804 767.892456,464.855804 
z"/>
<path fill="#747474" opacity="1.000000" stroke="none" 
	d="
M378.258667,120.670715 
	C371.950104,121.030273 365.323669,121.176613 358.705780,121.000298 
	C355.407471,120.912422 353.982269,121.742645 354.011566,125.403198 
	C354.184296,146.981583 354.137848,168.561722 354.095398,190.610931 
	C353.695129,190.396255 353.077362,189.712540 353.075867,189.027496 
	C353.025635,166.181488 353.034241,143.335373 353.034241,120.324326 
	C361.526672,120.324326 369.735474,120.324326 378.258667,120.670715 
z"/>
<path fill="#505050" opacity="1.000000" stroke="none" 
	d="
M713.060364,191.847763 
	C710.262939,191.847763 707.465454,191.847763 704.347595,191.847763 
	C704.347595,168.462753 704.347595,145.170486 704.347595,121.143280 
	C707.269653,121.143280 710.194519,121.143280 713.514038,121.404381 
	C713.862732,121.856750 713.816711,122.048012 713.344238,122.121094 
	C704.998718,121.353569 704.992432,121.353561 704.983398,128.928436 
	C704.974487,136.402161 704.980164,143.875885 704.979126,151.349609 
	C704.977539,162.311066 704.965149,173.272522 704.977661,184.233963 
	C704.985229,190.879654 705.002502,190.880127 711.393555,190.872986 
	C711.891724,190.872421 712.389954,190.858444 712.938904,191.098633 
	C713.013245,191.513641 713.036804,191.680710 713.060364,191.847763 
z"/>
<path fill="#505050" opacity="1.000000" stroke="none" 
	d="
M558.294556,191.039688 
	C557.954285,170.778229 557.947144,150.213425 557.940796,129.648636 
	C557.937988,120.670052 557.938721,120.670052 548.406250,121.540558 
	C551.359863,120.757637 554.770020,119.986870 558.518677,119.139580 
	C558.794250,120.902695 559.020203,121.676483 559.020874,122.450462 
	C559.040283,144.066589 559.042969,165.682724 559.019653,187.298859 
	C559.018372,188.444824 558.764343,189.590530 558.294556,191.039688 
z"/>
<path fill="#3E3E3E" opacity="1.000000" stroke="none" 
	d="
M624.622681,213.375641 
	C624.910767,213.908539 624.897156,214.165283 624.775757,214.792313 
	C612.156616,215.082886 599.645325,215.003174 586.702759,215.075256 
	C586.412415,214.693146 586.553284,214.159256 586.798889,213.361267 
	C599.376038,213.097977 611.848450,213.098740 624.622681,213.375641 
z"/>
<path fill="#747474" opacity="1.000000" stroke="none" 
	d="
M710.439819,425.591949 
	C710.266479,424.956329 709.941162,424.320557 709.941772,423.685150 
	C709.964966,399.203461 710.017883,374.721832 710.424194,350.005768 
	C710.781555,349.771362 711.111084,350.102142 711.111084,350.102142 
	C711.083008,374.724060 711.054993,399.345947 710.901184,424.601685 
	C710.775452,425.235535 710.439758,425.591949 710.439819,425.591949 
z"/>
<path fill="#747474" opacity="1.000000" stroke="none" 
	d="
M713.770691,122.239265 
	C713.816711,122.048012 713.862732,121.856750 713.972046,121.377274 
	C714.362732,122.072418 714.973328,123.055084 714.975769,124.039230 
	C715.028870,145.737991 715.028320,167.436920 714.967529,189.135635 
	C714.964905,190.073608 714.289490,191.009689 713.493896,191.897217 
	C713.036804,191.680710 713.013245,191.513641 713.137329,190.736969 
	C713.479492,189.176834 713.843628,188.226303 713.843628,187.275772 
	C713.843384,165.596939 713.803284,143.918106 713.770691,122.239265 
z"/>
<path fill="#747474" opacity="1.000000" stroke="none" 
	d="
M505.654236,121.162933 
	C506.138519,144.130341 506.222046,167.282608 506.172791,190.914291 
	C505.683990,190.694275 505.015869,189.994293 505.017059,189.295456 
	C505.056030,166.646164 505.159546,143.996994 505.654236,121.162933 
z"/>
<path fill="#747474" opacity="1.000000" stroke="none" 
	d="
M166.396820,174.979858 
	C166.004761,168.398911 165.834503,161.574554 166.042328,154.761765 
	C166.156891,151.006943 164.687103,149.831375 161.072052,149.891495 
	C149.758224,150.079712 138.440399,150.026627 126.600151,149.859009 
	C126.034950,149.477356 125.993706,149.303711 125.952469,149.130081 
	C139.374252,149.130081 152.796036,149.130081 166.776428,149.130081 
	C166.776428,157.692703 166.776428,166.216995 166.396820,174.979858 
z"/>
<path fill="#505050" opacity="1.000000" stroke="none" 
	d="
M744.000000,347.878845 
	C753.052246,347.877960 761.604492,347.877960 770.156738,347.877960 
	C770.149292,348.292725 770.141907,348.707458 770.134460,349.122223 
	C751.652100,349.122223 733.169800,349.122223 714.687439,349.122223 
	C714.682190,348.708069 714.676941,348.293915 714.671692,347.879761 
	C724.281128,347.879761 733.890564,347.879761 744.000000,347.878845 
z"/>
<path fill="#747474" opacity="1.000000" stroke="none" 
	d="
M710.887878,253.047653 
	C710.915833,272.705658 710.943787,292.363678 710.708740,312.500336 
	C710.445740,312.978973 710.011414,312.993256 710.011414,312.993256 
	C709.976685,293.307800 709.941956,273.622345 710.178101,253.473297 
	C710.449036,253.009705 710.887878,253.047653 710.887878,253.047653 
z"/>
<path fill="#3E3E3E" opacity="1.000000" stroke="none" 
	d="
M743.254517,132.596375 
	C743.513733,134.875381 743.985352,137.153198 743.998291,139.433624 
	C744.096252,156.651901 744.104126,173.870667 744.098633,191.558960 
	C743.698059,190.824142 743.027954,189.619980 743.026794,188.415161 
	C743.009155,170.134918 743.079163,151.854630 743.205566,133.113983 
	C743.282349,132.653641 743.254517,132.596375 743.254517,132.596375 
z"/>
<path fill="#3E3E3E" opacity="1.000000" stroke="none" 
	d="
M753.370483,191.634323 
	C753.081238,174.247559 753.056519,156.554047 753.076416,138.860596 
	C753.078064,137.391144 753.381104,135.922028 753.798096,134.089539 
	C754.020935,151.116913 753.998657,168.507553 753.945435,185.898071 
	C753.939880,187.708206 753.750610,189.517761 753.370483,191.634323 
z"/>
<path fill="#505050" opacity="1.000000" stroke="none" 
	d="
M725.035156,425.990601 
	C739.804626,425.990723 754.080994,425.990723 768.357300,425.990723 
	C768.357056,426.244598 768.356812,426.498444 768.356567,426.752319 
	C750.332764,426.752319 732.308960,426.752319 714.285156,426.752319 
	C714.279541,426.498383 714.273926,426.244446 714.268250,425.990509 
	C717.692871,425.990509 721.117432,425.990509 725.035156,425.990601 
z"/>
<path fill="#505050" opacity="1.000000" stroke="none" 
	d="
M205.669525,121.272995 
	C206.043823,137.088791 206.092255,153.175262 206.087769,169.744919 
	C205.689056,169.526520 205.039551,168.823822 205.042114,168.123505 
	C205.099197,152.596741 205.228287,137.070221 205.669525,121.272995 
z"/>
<path fill="#9E9E9E" opacity="1.000000" stroke="none" 
	d="
M247.559418,121.220825 
	C247.845337,137.036560 247.744125,153.050888 247.388092,169.370300 
	C247.146286,153.590057 247.159302,137.504730 247.559418,121.220825 
z"/>
<path fill="#505050" opacity="1.000000" stroke="none" 
	d="
M711.080200,313.921387 
	C723.314819,313.921387 735.549500,313.921387 747.784119,313.921387 
	C747.783630,314.237946 747.783142,314.554474 747.782654,314.871033 
	C735.577332,314.871033 723.372070,314.871033 711.015015,314.502075 
	C710.863220,314.133087 711.080200,313.921387 711.080200,313.921387 
z"/>
<path fill="#505050" opacity="1.000000" stroke="none" 
	d="
M258.984894,168.432724 
	C258.648956,167.180893 258.079956,165.470001 258.068237,163.755280 
	C257.972717,149.816513 257.981537,135.877045 257.980652,121.469620 
	C258.321289,122.711388 258.905365,124.419586 258.916626,126.131561 
	C259.008301,140.077942 258.992889,154.025009 258.984894,168.432724 
z"/>
<path fill="#9E9E9E" opacity="1.000000" stroke="none" 
	d="
M216.951202,166.407669 
	C216.575500,165.223297 215.895264,163.581161 215.881805,161.933609 
	C215.785767,150.178848 215.848282,138.422882 215.796097,126.667595 
	C215.788956,125.060165 215.425812,123.454323 215.151810,121.438194 
	C215.708649,122.385025 216.877670,123.736259 216.890717,125.098572 
	C217.021255,138.713791 216.961441,152.330856 216.951202,166.407669 
z"/>
<path fill="#9E9E9E" opacity="1.000000" stroke="none" 
	d="
M771.858398,120.652451 
	C756.942200,121.088982 741.805481,121.144226 726.156555,120.892105 
	C725.764526,120.391609 725.884766,120.198479 726.004944,120.005356 
	C741.215881,120.093964 756.426880,120.182564 771.858398,120.652451 
z"/>
<path fill="#9E9E9E" opacity="1.000000" stroke="none" 
	d="
M166.700928,137.544189 
	C153.174683,138.000610 139.430054,138.090271 125.206055,138.090317 
	C125.590981,137.675598 126.455063,137.068329 127.319618,137.067657 
	C140.373886,137.057358 153.428223,137.126740 166.700928,137.544189 
z"/>
<path fill="#747474" opacity="1.000000" stroke="none" 
	d="
M349.174561,463.519409 
	C349.240875,463.093689 349.542419,463.122833 349.692017,463.099213 
	C353.227478,463.343597 356.611389,463.808044 359.999542,463.841644 
	C369.045654,463.931488 378.093567,463.836182 387.609558,463.889771 
	C387.243622,464.310486 386.410645,464.951813 385.574005,464.956635 
	C374.027100,465.023163 362.479645,465.018280 350.932709,464.957672 
	C350.322784,464.954498 349.716309,464.297668 349.174561,463.519409 
z"/>
<path fill="#505050" opacity="1.000000" stroke="none" 
	d="
M582.638672,181.622620 
	C583.752686,181.079727 585.261597,180.092972 586.786011,180.068237 
	C595.909180,179.920334 605.036926,179.928192 614.160278,180.068024 
	C615.447083,180.087753 616.718384,181.114471 618.010132,182.112503 
	C616.639038,182.039383 615.251770,181.080475 613.871033,181.089844 
	C603.593506,181.159729 593.317261,181.421616 582.638672,181.622620 
z"/>
<path fill="#070707" opacity="1.000000" stroke="none" 
	d="
M819.945923,125.963867 
	C822.523193,120.526527 824.603455,119.818398 833.554138,121.880272 
	C832.556152,122.968063 831.412048,124.464081 831.244202,124.361580 
	C827.234497,121.912468 824.123840,124.662849 820.388428,126.008453 
	C819.995056,126.008827 819.945923,125.963867 819.945923,125.963867 
z"/>
<path fill="#747474" opacity="1.000000" stroke="none" 
	d="
M712.034302,251.065170 
	C723.784668,251.065170 735.535095,251.065170 747.285461,251.065170 
	C747.282288,251.351807 747.279175,251.638458 747.276062,251.925095 
	C735.846924,251.925095 724.417725,251.925095 712.518921,251.691681 
	C712.049316,251.458252 712.034302,251.065170 712.034302,251.065170 
z"/>
<path fill="#3E3E3E" opacity="1.000000" stroke="none" 
	d="
M203.000351,214.137970 
	C202.303024,214.001999 202.035049,213.903152 201.341370,213.853088 
	C201.419876,213.567902 201.925400,212.940567 202.428040,212.942871 
	C214.782135,212.999161 227.135895,213.122238 239.709076,213.600327 
	C227.762177,214.036530 215.595932,214.105804 203.000351,214.137970 
z"/>
<path fill="#747474" opacity="1.000000" stroke="none" 
	d="
M202.149841,464.339172 
	C214.328568,463.901611 226.735550,463.838867 239.607697,463.872742 
	C239.572754,464.303528 239.071884,464.930267 238.572617,464.928986 
	C226.507675,464.897980 214.442917,464.799957 202.149841,464.339172 
z"/>
<path fill="#070707" opacity="1.000000" stroke="none" 
	d="
M823.114014,134.446014 
	C823.478821,130.181564 825.904114,128.182770 830.846313,126.577713 
	C828.707397,130.313019 827.255432,132.970734 825.606750,135.500168 
	C825.471985,135.706848 823.994812,135.038422 823.114014,134.446014 
z"/>
<path fill="#505050" opacity="1.000000" stroke="none" 
	d="
M755.472107,132.054474 
	C757.843323,131.629547 760.677002,130.926987 763.521851,130.878525 
	C772.628174,130.723465 772.629761,130.816986 771.980713,121.420059 
	C772.607422,122.594200 773.574951,124.190918 773.730103,125.863014 
	C774.111145,129.970139 773.117249,132.841919 767.831848,132.191757 
	C763.922241,131.710800 759.907593,132.083710 755.472107,132.054474 
z"/>
<path fill="#3E3E3E" opacity="1.000000" stroke="none" 
	d="
M810.368164,191.645569 
	C810.242249,181.814362 810.399536,171.680954 810.785950,161.184265 
	C810.893799,170.995117 810.772583,181.169235 810.368164,191.645569 
z"/>
<path fill="#747474" opacity="1.000000" stroke="none" 
	d="
M354.131256,191.363510 
	C364.327576,190.922272 374.734314,190.869461 385.608765,190.899567 
	C385.604126,191.343140 385.130371,192.019943 384.659485,192.017929 
	C374.553345,191.975006 364.447540,191.856110 354.131256,191.363510 
z"/>
<path fill="#3E3E3E" opacity="1.000000" stroke="none" 
	d="
M800.020752,161.534241 
	C800.353088,164.958221 800.862915,168.839554 800.974060,172.732254 
	C801.148499,178.839676 801.053955,184.954758 801.038696,191.534485 
	C800.662720,189.793304 800.058350,187.587952 800.027405,185.374588 
	C799.918335,177.583435 800.006287,169.789536 800.020752,161.534241 
z"/>
<path fill="#747474" opacity="1.000000" stroke="none" 
	d="
M743.061035,132.331223 
	C743.254517,132.596375 743.282349,132.653641 743.302124,132.628769 
	C737.062683,132.266373 730.803467,131.928848 724.288391,131.577530 
	C724.288391,128.235855 724.288391,124.806511 724.655884,121.149109 
	C724.938843,131.025055 724.939575,130.957642 735.267273,131.066498 
	C737.803894,131.093231 740.334290,131.716858 743.061035,132.331223 
z"/>
<path fill="#747474" opacity="1.000000" stroke="none" 
	d="
M131.223373,186.404846 
	C140.773605,185.996918 150.524063,185.973907 160.758392,185.983612 
	C158.725784,186.329208 156.211700,186.884567 153.692398,186.909317 
	C146.270569,186.982224 138.846664,186.844833 131.223373,186.404846 
z"/>
<path fill="#747474" opacity="1.000000" stroke="none" 
	d="
M546.590576,149.960526 
	C546.584839,150.322113 546.103760,151.029846 545.628235,151.026169 
	C536.235901,150.953293 526.844177,150.797913 517.192749,150.308899 
	C526.661377,149.964142 536.389587,149.969788 546.590576,149.960526 
z"/>
<path fill="#9E9E9E" opacity="1.000000" stroke="none" 
	d="
M133.166138,84.368996 
	C140.094681,83.998718 147.254059,84.065422 154.410538,83.951057 
	C155.909698,83.927094 157.398178,83.236099 158.946564,82.436249 
	C159.354462,82.791359 159.707382,83.562698 160.246780,84.741585 
	C150.946548,84.741585 142.171234,84.741585 133.166138,84.368996 
z"/>
<path fill="#747474" opacity="1.000000" stroke="none" 
	d="
M518.424438,162.038589 
	C518.422974,161.675430 518.895081,160.965942 519.363342,160.968414 
	C528.465393,161.016708 537.567139,161.148132 546.866211,161.658539 
	C537.674438,162.044296 528.285339,162.034027 518.424438,162.038589 
z"/>
<path fill="#747474" opacity="1.000000" stroke="none" 
	d="
M517.003662,149.595306 
	C516.666138,148.395752 515.994690,146.729507 515.965576,145.052124 
	C515.831909,137.343018 515.877686,129.630798 515.912842,121.452682 
	C516.304871,122.968636 516.904602,124.947632 516.934631,126.935234 
	C517.046326,134.329773 516.970825,141.727142 517.003662,149.595306 
z"/>
<path fill="#9E9E9E" opacity="1.000000" stroke="none" 
	d="
M547.688110,121.936081 
	C548.127258,130.490448 548.202759,139.316788 547.945068,148.592041 
	C547.438599,149.015900 547.265259,148.990845 547.092041,148.965790 
	C547.169495,140.046539 547.247009,131.127289 547.688110,121.936081 
z"/>
<path fill="#9E9E9E" opacity="1.000000" stroke="none" 
	d="
M548.128296,162.922882 
	C548.173462,171.712463 548.218628,180.502045 548.153259,189.764664 
	C547.685974,188.242203 547.057922,186.251572 547.021851,184.250305 
	C546.900024,177.489960 546.988220,170.725815 547.303955,163.464417 
	C547.783997,162.951431 547.956116,162.937149 548.128296,162.922882 
z"/>
<path fill="#747474" opacity="1.000000" stroke="none" 
	d="
M516.305237,191.020111 
	C516.060059,182.198135 516.165710,173.095459 516.654114,163.716095 
	C516.909973,172.539398 516.783020,181.639404 516.305237,191.020111 
z"/>
<path fill="#747474" opacity="1.000000" stroke="none" 
	d="
M133.156555,460.426453 
	C141.329254,460.010040 149.730453,459.967285 158.602188,459.980042 
	C156.256927,460.377991 153.444839,460.968445 150.624542,461.010803 
	C144.880402,461.097076 139.131821,460.887695 133.156555,460.426453 
z"/>
<path fill="#9E9E9E" opacity="1.000000" stroke="none" 
	d="
M125.557945,149.301392 
	C125.993706,149.303711 126.034950,149.477356 126.147484,149.909058 
	C126.166214,157.855896 126.113655,165.544632 126.033554,173.713989 
	C125.685318,170.714188 125.186119,167.238800 125.087448,163.752090 
	C124.952888,158.996826 125.123596,154.232925 125.557945,149.301392 
z"/>
<path fill="#747474" opacity="1.000000" stroke="none" 
	d="
M223.750580,192.319305 
	C229.667450,191.616516 235.907898,191.247345 242.578003,190.930542 
	C236.977829,194.728943 230.405533,192.325241 223.750580,192.319305 
z"/>
<path fill="#3E3E3E" opacity="1.000000" stroke="none" 
	d="
M768.289185,464.837402 
	C767.892456,464.855804 767.927734,464.452911 767.960205,464.253357 
	C769.655518,463.757202 771.318481,463.460602 772.981384,463.164032 
	C773.026917,463.644012 773.072449,464.124023 773.118042,464.604034 
	C771.640686,464.675690 770.163330,464.747375 768.289185,464.837402 
z"/>
<path fill="#3E3E3E" opacity="1.000000" stroke="none" 
	d="
M585.012207,375.331360 
	C585.083252,374.936890 585.559937,375.008545 585.800903,375.005951 
	C586.041931,376.988495 586.041931,378.973633 586.041931,380.958771 
	C585.752441,380.951080 585.463013,380.943390 585.173523,380.935699 
	C585.096069,379.199066 585.018677,377.462463 585.012207,375.331360 
z"/>
<path fill="#3E3E3E" opacity="1.000000" stroke="none" 
	d="
M624.059937,374.107880 
	C624.465637,374.795593 624.816162,375.735962 625.166687,376.676331 
	C624.854980,376.760132 624.543274,376.843964 624.231567,376.927765 
	C624.155945,376.072021 624.080322,375.216309 624.059937,374.107880 
z"/>
<path fill="#747474" opacity="1.000000" stroke="none" 
	d="
M220.703400,191.289276 
	C221.265381,191.076813 222.101303,191.164764 223.124161,191.661713 
	C222.533173,191.910370 221.755249,191.750031 220.703400,191.289276 
z"/>
<path fill="#747474" opacity="1.000000" stroke="none" 
	d="
M710.947266,425.061188 
	C711.387024,425.185089 711.654907,425.483337 711.922791,425.781586 
	C711.571228,425.884644 711.219666,425.987701 710.653931,425.841370 
	C710.439758,425.591949 710.775452,425.235535 710.947266,425.061188 
z"/>
<path fill="#505050" opacity="1.000000" stroke="none" 
	d="
M754.242920,133.315887 
	C754.072083,133.017639 754.172302,132.539932 754.653992,132.037109 
	C754.861633,132.386810 754.687866,132.761627 754.242920,133.315887 
z"/>
<path fill="#747474" opacity="1.000000" stroke="none" 
	d="
M219.035583,190.319794 
	C219.417923,190.065216 219.910019,190.162842 220.472015,190.652512 
	C220.076401,190.920364 219.610855,190.796204 219.035583,190.319794 
z"/>
<path fill="#3E3E3E" opacity="1.000000" stroke="none" 
	d="
M672.062622,464.091431 
	C672.243164,464.095184 672.334106,464.321472 672.694824,464.794800 
	C672.634033,464.799255 672.303589,464.556610 672.062622,464.091431 
z"/>
<path fill="#3E3E3E" opacity="1.000000" stroke="none" 
	d="
M348.218842,359.097351 
	C348.037689,358.779999 348.125336,358.606293 348.257782,358.143951 
	C348.576599,358.189575 348.850586,358.523865 349.071716,359.198914 
	C348.841827,359.440155 348.664734,359.340607 348.218842,359.097351 
z"/>
<path fill="#747474" opacity="1.000000" stroke="none" 
	d="
M218.081543,189.295471 
	C218.354019,189.187943 218.691788,189.337204 219.034195,189.779297 
	C218.741501,189.898834 218.444183,189.725555 218.081543,189.295471 
z"/>
<path fill="#747474" opacity="1.000000" stroke="none" 
	d="
M547.021362,149.226959 
	C547.265259,148.990845 547.438599,149.015900 547.873901,149.061218 
	C547.949219,149.453125 547.762451,149.824768 547.253967,150.112640 
	C546.938416,149.848633 546.944519,149.668365 547.021362,149.226959 
z"/>
<path fill="#747474" opacity="1.000000" stroke="none" 
	d="
M710.620850,349.601990 
	C710.799927,349.215668 711.139709,348.998749 711.479492,348.781830 
	C711.548828,349.138397 711.618042,349.494904 711.399170,349.976807 
	C711.111084,350.102142 710.781555,349.771362 710.620850,349.601990 
z"/>
<path fill="#070707" opacity="1.000000" stroke="none" 
	d="
M820.017334,126.033524 
	C820.039612,126.058228 819.863098,126.041100 819.904541,126.002487 
	C819.945923,125.963867 819.995056,126.008827 820.017334,126.033524 
z"/>
<path fill="#747474" opacity="1.000000" stroke="none" 
	d="
M348.736084,317.690308 
	C348.835541,318.047577 348.634888,318.628143 347.936127,319.115479 
	C347.770630,318.652710 348.103302,318.283142 348.736084,317.690308 
z"/>
<path fill="#505050" opacity="1.000000" stroke="none" 
	d="
M710.010132,313.257935 
	C710.011414,312.993256 710.445740,312.978973 710.662476,312.963745 
	C710.879150,312.948486 711.017029,313.427277 711.048584,313.674316 
	C711.080200,313.921387 710.863220,314.133087 710.752258,314.240723 
	C710.430420,314.073120 710.219604,313.797882 710.010132,313.257935 
z"/>
<path fill="#505050" opacity="1.000000" stroke="none" 
	d="
M710.958740,252.814194 
	C710.887878,253.047653 710.449036,253.009705 710.228882,253.007294 
	C710.084839,252.664185 710.160889,252.323486 710.551270,251.921875 
	C710.865479,251.860931 711.095215,252.097214 711.095215,252.097214 
	C711.095215,252.097214 711.029663,252.580734 710.958740,252.814194 
z"/>
<path fill="#505050" opacity="1.000000" stroke="none" 
	d="
M619.021912,184.894318 
	C619.237427,184.880341 619.562622,185.185074 619.964233,185.828735 
	C619.737610,185.849457 619.434570,185.531250 619.021912,184.894318 
z"/>
<path fill="#505050" opacity="1.000000" stroke="none" 
	d="
M711.767334,251.044342 
	C712.034302,251.065170 712.049316,251.458252 712.055542,251.654846 
	C711.904236,251.906693 711.746765,251.961945 711.342285,252.057190 
	C711.095215,252.097214 710.865479,251.860931 710.749512,251.740234 
	C710.922546,251.420853 711.211487,251.222168 711.767334,251.044342 
z"/>
<path fill="#505050" opacity="1.000000" stroke="none" 
	d="
M725.715881,119.990730 
	C725.884766,120.198479 725.764526,120.391609 725.669800,120.925018 
	C725.695312,121.265305 725.239319,121.349342 725.119873,121.150604 
	C725.142578,120.626617 725.284729,120.301361 725.715881,119.990730 
z"/>
<path fill="#747474" opacity="1.000000" stroke="none" 
	d="
M517.245972,163.349564 
	C517.042114,163.019119 517.096985,162.470581 517.609741,161.945465 
	C517.879944,162.356430 517.692322,162.743958 517.245972,163.349564 
z"/>
<path fill="#747474" opacity="1.000000" stroke="none" 
	d="
M548.089111,162.595764 
	C547.956116,162.937149 547.783997,162.951431 547.355103,163.000427 
	C547.050842,162.860687 547.003357,162.686218 546.943970,162.240921 
	C547.304749,162.069626 547.677307,162.169144 548.089111,162.595764 
z"/>
<path fill="#505050" opacity="1.000000" stroke="none" 
	d="
M617.990051,182.869019 
	C618.330627,182.867661 618.699829,183.277420 619.044312,184.122665 
	C618.685974,184.132141 618.352295,183.706131 617.990051,182.869019 
z"/>
<path fill="#000000" opacity="1.000000" stroke="none" 
	d="
M149.730988,223.058472 
	C143.402252,224.571457 138.582718,222.117294 137.235107,217.035370 
	C135.984497,212.319290 139.486298,206.632217 144.745819,205.337006 
	C149.466873,204.174362 151.824509,207.391052 154.376419,210.691299 
	C156.842606,213.880737 156.160507,216.519409 154.056259,219.186172 
	C152.946457,220.592621 151.421371,221.671402 149.730988,223.058472 
M144.690002,210.003937 
	C143.461929,210.983536 141.428711,211.781769 141.159378,212.977341 
	C140.404419,216.328751 141.413879,219.409698 145.424316,219.827087 
	C148.648697,220.162659 151.543686,218.812973 151.747375,215.194717 
	C151.972763,211.190704 149.736816,209.216431 144.690002,210.003937 
z"/>
<path fill="#000000" opacity="1.000000" stroke="none" 
	d="
M147.994736,347.508972 
	C148.002213,351.424896 148.002213,354.908264 148.002213,358.391602 
	C143.346634,354.365936 143.119324,347.925110 146.561050,342.855682 
	C147.157410,344.620544 147.572327,345.848450 147.994736,347.508972 
z"/>
<path fill="#000000" opacity="1.000000" stroke="none" 
	d="
M147.997650,290.221375 
	C147.802322,293.571594 147.606247,296.474487 147.410156,299.377380 
	C146.833923,299.343506 146.257690,299.309601 145.681458,299.275726 
	C145.681458,294.481903 145.681458,289.688049 145.681458,284.894226 
	C146.098999,284.766327 146.516525,284.638428 146.934067,284.510529 
	C147.288345,286.265015 147.642639,288.019531 147.997650,290.221375 
z"/>
<path fill="#000000" opacity="1.000000" stroke="none" 
	d="
M375.913757,159.014069 
	C378.220612,159.053360 380.074738,158.922546 381.879456,159.162888 
	C387.776031,159.948090 392.030945,164.573212 391.840210,169.815491 
	C391.643738,175.215332 386.382843,180.630035 380.843567,180.878845 
	C377.019775,181.050613 373.181458,180.892120 369.349609,180.892090 
	C366.455170,180.892059 365.085602,179.420364 365.085876,176.563553 
	C365.086212,172.731628 365.273102,168.884583 364.997406,165.071701 
	C364.673096,160.586929 366.258636,158.439148 370.943054,158.987061 
	C372.422302,159.160095 373.938934,159.013992 375.913757,159.014069 
z"/>
<path fill="#000000" opacity="1.000000" stroke="none" 
	d="
M381.227203,135.017670 
	C383.464355,139.006882 383.790710,142.492249 380.631439,145.849487 
	C377.058228,149.646652 372.568817,150.402725 367.821198,149.604034 
	C366.747437,149.423416 365.324921,147.331177 365.231079,146.034332 
	C364.909668,141.593140 365.107788,137.114349 365.107788,132.012863 
	C370.805298,132.710556 376.417114,129.854370 381.227203,135.017670 
z"/>
<path fill="#000000" opacity="1.000000" stroke="none" 
	d="
M655.555542,131.982910 
	C655.555542,131.982925 655.490479,131.979462 655.964111,132.028595 
	C660.547729,132.336914 664.657715,132.596085 668.767639,132.855255 
	C673.589966,133.861465 676.557373,136.985260 677.718018,141.552353 
	C678.869995,146.085297 676.609985,149.542770 673.075562,152.174896 
	C671.640076,153.243988 669.973633,154.003128 667.619446,155.004272 
	C663.033264,155.060806 659.239990,155.016342 655.446655,154.971893 
	C655.446655,154.971893 655.489624,155.018311 655.307190,154.711517 
	C654.742493,154.085083 654.360291,153.765427 653.978027,153.445770 
	C653.978027,153.445786 653.983215,153.509171 653.998535,153.013779 
	C654.019104,146.161636 654.024414,139.804871 654.029724,133.448120 
	C654.029724,133.448120 653.983337,133.490021 654.292969,133.311783 
	C654.920166,132.750000 655.237854,132.366455 655.555542,131.982910 
z"/>
<path fill="#505050" opacity="1.000000" stroke="none" 
	d="
M653.725464,133.799927 
	C654.024414,139.804871 654.019104,146.161636 654.022095,153.035095 
	C653.827332,147.085114 653.624268,140.618439 653.725464,133.799927 
z"/>
<path fill="#505050" opacity="1.000000" stroke="none" 
	d="
M668.633423,132.509750 
	C664.657715,132.596085 660.547729,132.336914 655.944031,132.054260 
	C659.799927,132.075256 664.149536,132.119751 668.633423,132.509750 
z"/>
<path fill="#505050" opacity="1.000000" stroke="none" 
	d="
M655.779175,155.284210 
	C659.239990,155.016342 663.033264,155.060806 667.267090,155.105164 
	C663.842224,155.268890 659.976929,155.432724 655.779175,155.284210 
z"/>
<path fill="#505050" opacity="1.000000" stroke="none" 
	d="
M655.074158,131.936600 
	C655.237854,132.366455 654.920166,132.750000 654.290894,133.342987 
	C654.183716,132.998367 654.388245,132.444336 655.074158,131.936600 
z"/>
<path fill="#505050" opacity="1.000000" stroke="none" 
	d="
M653.973877,153.910339 
	C654.360291,153.765427 654.742493,154.085083 655.338867,154.712875 
	C655.025146,154.805664 654.497437,154.590286 653.973877,153.910339 
z"/>
<path fill="#000000" opacity="1.000000" stroke="none" 
	d="
M589.237793,168.937164 
	C592.463501,161.732727 595.677673,154.523041 598.937988,147.334274 
	C599.187073,146.785110 599.762512,146.383972 601.333069,144.642426 
	C605.016418,153.106415 608.358887,160.787064 611.889709,169.113785 
	C612.030396,170.189926 611.982788,170.619995 611.935181,171.050079 
	C611.935181,171.050079 612.027710,171.033920 611.574585,171.003922 
	C603.725159,170.965179 596.328857,170.956436 588.932556,170.947693 
	C588.932556,170.947693 588.968933,171.035660 588.979858,170.686813 
	C589.073120,169.871033 589.155396,169.404083 589.237793,168.937164 
z"/>
<path fill="#747474" opacity="1.000000" stroke="none" 
	d="
M589.135986,171.341324 
	C596.328857,170.956436 603.725159,170.965179 611.594604,170.961456 
	C610.261047,171.367401 608.455444,172.134445 606.647522,172.139847 
	C600.878601,172.157074 595.108826,171.891388 589.135986,171.341324 
z"/>
<path fill="#747474" opacity="1.000000" stroke="none" 
	d="
M588.951477,169.081177 
	C589.155396,169.404083 589.073120,169.871033 589.026489,170.696259 
	C588.929871,170.444763 588.797546,169.834976 588.951477,169.081177 
z"/>
<path fill="#747474" opacity="1.000000" stroke="none" 
	d="
M612.229614,171.012100 
	C611.982788,170.619995 612.030396,170.189926 612.060791,169.435364 
	C612.203674,169.731949 612.363831,170.353027 612.229614,171.012100 
z"/>
<path fill="#000000" opacity="1.000000" stroke="none" 
	d="
M141.004593,103.061249 
	C144.024979,102.953728 147.045349,102.846207 150.689606,102.951523 
	C151.838623,104.103455 152.363770,105.042557 152.977036,106.444336 
	C153.013855,114.957420 152.962555,123.007812 152.939636,131.012772 
	C152.968033,130.967331 152.874222,130.915527 152.874222,130.915527 
	C149.085861,133.790421 142.804779,133.963638 139.410049,131.113205 
	C139.021194,130.950302 139.082245,131.008301 139.054611,130.691254 
	C138.981598,129.953140 138.936218,129.532074 138.919922,128.636230 
	C139.298782,120.129639 139.648544,112.097832 140.260315,103.982277 
	C140.703110,103.591743 140.883881,103.284973 141.027588,102.983009 
	C140.990524,102.987823 141.004593,103.061256 141.004593,103.061249 
M141.957291,117.125366 
	C141.959198,120.124130 141.610779,123.186066 142.134583,126.090706 
	C142.345520,127.260414 144.436874,128.811554 145.728943,128.866760 
	C147.069366,128.924042 149.620468,127.444038 149.671112,126.527473 
	C149.991791,120.722878 150.041428,114.861862 149.492065,109.084923 
	C149.379532,107.901405 146.437134,106.626732 144.607758,106.182922 
	C144.047943,106.047119 142.360397,108.439140 142.060379,109.857773 
	C141.627274,111.905678 141.988632,114.121597 141.957291,117.125366 
z"/>
<path fill="#3E3E3E" opacity="1.000000" stroke="none" 
	d="
M139.998291,104.066032 
	C139.648544,112.097832 139.298782,120.129639 138.716736,128.782333 
	C138.683731,129.938248 138.882996,130.473282 139.082245,131.008301 
	C139.082245,131.008301 139.021194,130.950302 139.052521,130.921692 
	C137.235962,131.485672 135.401367,132.367981 133.530228,132.453796 
	C133.097977,132.473633 132.135620,129.775650 132.108963,128.315704 
	C131.970230,120.719673 131.973862,113.117851 132.133209,105.522362 
	C132.163818,104.063820 133.072495,101.406319 133.643875,101.387741 
	C136.086929,101.308334 138.555374,102.010132 141.009583,102.744141 
	C141.004593,103.061256 140.990524,102.987823 140.802322,103.113205 
	C140.408844,103.514404 140.203568,103.790215 139.998291,104.066032 
z"/>
<path fill="#3E3E3E" opacity="1.000000" stroke="none" 
	d="
M152.888916,105.981659 
	C152.363770,105.042557 151.838623,104.103455 151.075241,102.924026 
	C153.382614,102.188034 155.947891,101.323990 158.459915,101.457954 
	C159.081268,101.491089 159.942764,104.754242 159.985565,106.549500 
	C160.160019,113.864990 160.135483,121.188095 160.033279,128.506287 
	C159.966263,133.304382 157.984131,134.132843 153.143341,131.189545 
	C152.874222,130.915527 152.968033,130.967331 153.283752,130.750046 
	C153.362610,122.349060 153.125763,114.165359 152.888916,105.981659 
z"/>
<path fill="#070707" opacity="1.000000" stroke="none" 
	d="
M713.344238,122.121094 
	C713.803284,143.918106 713.843384,165.596939 713.843628,187.275772 
	C713.843628,188.226303 713.479492,189.176834 713.086548,190.489029 
	C712.389954,190.858444 711.891724,190.872421 711.393555,190.872986 
	C705.002502,190.880127 704.985229,190.879654 704.977661,184.233963 
	C704.965149,173.272522 704.977539,162.311066 704.979126,151.349609 
	C704.980164,143.875885 704.974487,136.402161 704.983398,128.928436 
	C704.992432,121.353561 704.998718,121.353569 713.344238,122.121094 
z"/>
<path fill="#3E3E3E" opacity="1.000000" stroke="none" 
	d="
M145.124359,210.003937 
	C149.736816,209.216431 151.972763,211.190704 151.747375,215.194717 
	C151.543686,218.812973 148.648697,220.162659 145.424316,219.827087 
	C141.413879,219.409698 140.404419,216.328751 141.159378,212.977341 
	C141.428711,211.781769 143.461929,210.983536 145.124359,210.003937 
z"/>
<path fill="#3E3E3E" opacity="1.000000" stroke="none" 
	d="
M141.984131,116.695595 
	C141.988632,114.121597 141.627274,111.905678 142.060379,109.857773 
	C142.360397,108.439140 144.047943,106.047119 144.607758,106.182922 
	C146.437134,106.626732 149.379532,107.901405 149.492065,109.084923 
	C150.041428,114.861862 149.991791,120.722878 149.671112,126.527473 
	C149.620468,127.444038 147.069366,128.924042 145.728943,128.866760 
	C144.436874,128.811554 142.345520,127.260414 142.134583,126.090706 
	C141.610779,123.186066 141.959198,120.124130 141.984131,116.695595 
z"/>
<path fill="#9E9E9E" opacity="1.000000" stroke="none" 
	d="
M152.977036,106.444336 
	C153.125763,114.165359 153.362610,122.349060 153.255356,130.795486 
	C152.962555,123.007812 153.013855,114.957420 152.977036,106.444336 
z"/>
<path fill="#747474" opacity="1.000000" stroke="none" 
	d="
M139.054611,130.691254 
	C138.882996,130.473282 138.683731,129.938248 138.687653,129.257111 
	C138.936218,129.532074 138.981598,129.953140 139.054611,130.691254 
z"/>
<path fill="#747474" opacity="1.000000" stroke="none" 
	d="
M140.260315,103.982277 
	C140.203568,103.790215 140.408844,103.514404 140.839386,103.108391 
	C140.883881,103.284973 140.703110,103.591743 140.260315,103.982277 
z"/>
</svg>